<?xml version="1.0" encoding="utf-8"?>
<!-- Generator: Adobe Illustrator 22.0.1, SVG Export Plug-In . SVG Version: 6.00 Build 0)  -->
<svg version="1.1" id="Layer_1" xmlns="http://www.w3.org/2000/svg" xmlns:xlink="http://www.w3.org/1999/xlink" x="0px" y="0px"
	 viewBox="0 0 80.7 80.7" style="enable-background:new 0 0 80.7 80.7;" xml:space="preserve">
<style type="text/css">
	.st0{opacity:0.56;}
</style>
<g>
	<path class="st0" d="M40.5,1.6C19,1.6,1.6,19,1.6,40.5S19,79.5,40.5,79.5S79.5,62,79.5,40.5S62,1.6,40.5,1.6z M58.1,63.1L40.3,45.3
		L22.7,62.9l-4.8-4.8l17.6-17.6L17.8,22.9l5.1-5.1l17.7,17.7l17.6-17.6l4.8,4.8L45.3,40.3l17.8,17.8L58.1,63.1z"/>
	<polygon points="62.9,22.7 58.1,17.9 40.6,35.5 22.9,17.8 17.8,22.9 35.5,40.6 17.9,58.1 22.7,62.9 40.3,45.3 58.1,63.1 63.1,58.1 
		45.3,40.3 	"/>
</g>
</svg>
